PathFileType	3	(X/Y/Z)	running_2__view2_aligned.trc
DataRate	CameraRate	NumFrames	NumMarkers	Units	OrigDataRate	OrigDataStartFrame	OrigNumFrames
100.0	100.0	7	19	mm	100.0	5827	6434
Frame#	Time	pelvis			neck			head			hip_left			hip_right			knee_left			knee_right			ankle_left			ankle_right			heel_left			heel_right			toe_left			toe_right			shoulder_left			shoulder_right			elbow_left			elbow_right			wrist_left			wrist_right			
		X1	Y1	Z1	X2	Y2	Z2	X3	Y3	Z3	X4	Y4	Z4	X5	Y5	Z5	X6	Y6	Z6	X7	Y7	Z7	X8	Y8	Z8	X9	Y9	Z9	X10	Y10	Z10	X11	Y11	Z11	X12	Y12	Z12	X13	Y13	Z13	X14	Y14	Z14	X15	Y15	Z15	X16	Y16	Z16	X17	Y17	Z17	X18	Y18	Z18	X19	Y19	Z19	
5827	58.26000	30.691608	941.009621	222.223506	23.921076	1484.037626	357.914908	19.600610	1566.322608	509.271714	105.016577	943.623653	217.751131	-43.632895	938.395489	226.695938	125.589869	539.228209	374.968870	-77.500091	513.261673	248.883339	105.062243	133.238537	284.608760	-106.984343	253.044048	-70.092078	99.033169	84.048166	247.803884	-105.820891	247.952748	-125.010204	105.615504	76.075894	477.028137	-115.916166	85.567086	-10.655810	175.002971	1454.183763	267.466706	-145.203022	1434.617492	343.212232	247.713476	1255.283639	79.439823	-209.392747	1166.953682	285.458316	318.255125	1068.210924	220.074932	-65.467748	1111.137059	469.436566
5828	58.27000	32.262239	942.039820	222.192858	26.177763	1484.910974	358.635080	21.602708	1567.013439	510.059230	106.573704	944.682663	217.684528	-42.048761	939.396870	226.701244	126.351632	539.990304	371.094208	-77.107903	514.628836	250.629991	106.076557	129.060119	285.309957	-108.545510	255.699620	-66.948509	100.113763	78.616046	248.661277	-107.573874	251.013002	-121.716138	107.065180	73.989241	482.225296	-117.718617	87.627024	-8.789003	177.738855	1454.134919	269.641834	-142.608945	1436.517921	342.866089	248.945090	1253.632765	83.843230	-207.463453	1170.732400	282.654295	314.797086	1067.889693	223.128328	-66.406994	1112.764877	465.811458
5829	58.28000	32.190751	942.460587	222.346879	25.624664	1485.515038	359.171094	20.309247	1567.432668	510.264597	106.555460	945.160566	217.692442	-42.173563	939.760509	227.001364	127.127008	539.505002	363.065295	-76.398611	516.316527	256.415649	106.579830	128.312018	275.843565	-108.394690	255.438894	-54.516508	100.276920	78.175325	239.114024	-107.639247	250.241498	-108.712403	108.411393	72.061366	471.018031	-116.825848	89.058918	4.716905	178.260255	1454.753377	273.281931	-142.642668	1438.157873	341.377437	251.564858	1252.977860	92.129224	-208.756424	1175.788504	275.586013	306.439315	1069.781483	231.342662	-72.713798	1112.858002	457.237189
5830	58.29000	32.119263	942.881355	222.500901	25.071564	1486.119103	359.707109	19.015787	1567.851897	510.469965	106.537217	945.638469	217.700357	-42.298366	940.124147	227.301484	127.902384	539.019701	355.036381	-75.689319	518.004218	262.201306	107.083103	127.563917	266.377173	-108.243870	255.178168	-42.084507	100.440078	77.734603	229.566771	-107.704620	249.469993	-95.708668	109.757606	70.133492	459.810766	-115.933078	90.490812	18.222813	178.781655	1455.371834	276.922028	-142.676391	1439.797825	339.888785	254.184627	1252.322956	100.415217	-210.049396	1180.844607	268.517732	298.081544	1071.673273	239.556997	-79.020602	1112.951127	448.662920
5831	58.30000	32.047776	943.302122	222.654923	24.518465	1486.723167	360.243123	17.722326	1568.271126	510.675332	106.518974	946.116372	217.708271	-42.423169	940.487786	227.601605	128.677761	538.534400	347.007468	-74.980027	519.691908	267.986964	107.586376	126.815816	256.910781	-108.093049	254.917443	-29.652506	100.603235	77.293881	220.019518	-107.769993	248.698489	-82.704933	111.103819	68.205617	448.603502	-115.040309	91.922706	31.728721	179.303054	1455.990292	280.562125	-142.710114	1441.437777	338.400133	256.804396	1251.668051	108.701211	-211.342368	1185.900710	261.449451	289.723773	1073.565064	247.771332	-85.327406	1113.044252	440.088651
5832	58.31000	31.976288	943.722889	222.808945	23.965366	1487.327231	360.779138	16.428865	1568.690355	510.880700	106.500730	946.594275	217.716185	-42.547972	940.851425	227.901725	129.453137	538.049099	338.978554	-74.270735	521.379599	273.772621	108.089649	126.067714	247.444389	-107.942229	254.656717	-17.220505	100.766392	76.853160	210.472265	-107.835366	247.926985	-69.701198	112.450032	66.277742	437.396237	-114.147539	93.354600	45.234628	179.824454	1456.608750	284.202221	-142.743837	1443.077728	336.911481	259.424165	1251.013146	116.987204	-212.635340	1190.956814	254.381170	281.366002	1075.456854	255.985667	-91.634209	1113.137377	431.514382
5833	58.32000	31.904800	944.143656	222.962966	23.412266	1487.931296	361.315153	15.135405	1569.109584	511.086067	106.482487	947.072178	217.724100	-42.672775	941.215063	228.201846	130.228513	537.563798	330.949641	-73.561444	523.067289	279.558279	108.592922	125.319613	237.977997	-107.791409	254.395992	-4.788504	100.929550	76.412438	200.925011	-107.900739	247.155480	-56.697462	113.796245	64.349868	426.188972	-113.254769	94.786495	58.740536	180.345853	1457.227208	287.842318	-142.777560	1444.717680	335.422829	262.043933	1250.358241	125.273198	-213.928312	1196.012917	247.312889	273.008231	1077.348645	264.200002	-97.941013	1113.230502	422.940113
